<svg width="200" height="200" viewBox="0 0 200 200" fill="none" xmlns="http://www.w3.org/2000/svg">
<rect width="200" height="200" fill="#7DD3FC"/>
<path d="M62.4933 155V45.9091H103.402C111.783 45.9091 118.814 47.4716 124.496 50.5966C130.214 53.7216 134.528 58.0185 137.44 63.4872C140.388 68.9205 141.861 75.0994 141.861 82.0241C141.861 89.0199 140.388 95.2344 137.44 100.668C134.493 106.101 130.142 110.38 124.39 113.505C118.637 116.594 111.552 118.139 103.136 118.139H76.0232V101.893H100.473C105.373 101.893 109.386 101.04 112.511 99.3359C115.636 97.6314 117.944 95.2876 119.436 92.3047C120.963 89.3217 121.726 85.8949 121.726 82.0241C121.726 78.1534 120.963 74.7443 119.436 71.7969C117.944 68.8494 115.618 66.5589 112.458 64.9254C109.333 63.2564 105.302 62.4219 100.366 62.4219H82.2554V155H62.4933Z" fill="#202831"/>
</svg>

