<svg width="200" height="200" viewBox="0 0 200 200" fill="none" xmlns="http://www.w3.org/2000/svg">
<rect width="200" height="200" fill="#202831"/>
<path d="M60.922 155V45.9091H103.962C112.236 45.9091 119.285 47.4893 125.109 50.6499C130.933 53.7749 135.372 58.125 138.426 63.7003C141.515 69.2401 143.06 75.6321 143.06 82.8764C143.06 90.1207 141.497 96.5128 138.372 102.053C135.247 107.592 130.72 111.907 124.789 114.996C118.894 118.086 111.756 119.631 103.376 119.631H75.9433V101.147H99.6471C104.086 101.147 107.744 100.384 110.62 98.8565C113.532 97.294 115.698 95.1456 117.119 92.4112C118.575 89.6413 119.303 86.4631 119.303 82.8764C119.303 79.2543 118.575 76.0937 117.119 73.3949C115.698 70.6605 113.532 68.5476 110.62 67.0561C107.708 65.5291 104.015 64.7656 99.5406 64.7656H83.9866V155H60.922Z" fill="#7DD3FC"/>
</svg>
